<?xml version="1.0" encoding="UTF-8"?>
<svg class="animated" version="1.1" viewBox="0 0 500 500" xmlns="http://www.w3.org/2000/svg">
<style>svg#freepik_stories-customer-survey:not(.animated) .animable {opacity: 0;}svg#freepik_stories-customer-survey.animated #freepik--background-complete--inject-31 {animation: 1s 1 forwards cubic-bezier(.36,-0.01,.5,1.38) zoomOut;animation-delay: 0s;}svg#freepik_stories-customer-survey.animated #freepik--Shadow--inject-31 {animation: 1s 1 forwards cubic-bezier(.36,-0.01,.5,1.38) lightSpeedRight;animation-delay: 0s;}svg#freepik_stories-customer-survey.animated #freepik--Survey--inject-31 {animation: 1s 1 forwards cubic-bezier(.36,-0.01,.5,1.38) zoomIn;animation-delay: 0s;}svg#freepik_stories-customer-survey.animated #freepik--Character--inject-31 {animation: 1s 1 forwards cubic-bezier(.36,-0.01,.5,1.38) slideDown;animation-delay: 0s;}            @keyframes zoomOut {                0% {                    opacity: 0;                    transform: scale(1.5);                }                100% {                    opacity: 1;                    transform: scale(1);                }            }                    @keyframes lightSpeedRight {              from {                transform: translate3d(50%, 0, 0) skewX(-20deg);                opacity: 0;              }              60% {                transform: skewX(10deg);                opacity: 1;              }              80% {                transform: skewX(-2deg);              }              to {                opacity: 1;                transform: translate3d(0, 0, 0);              }            }                    @keyframes zoomIn {                0% {                    opacity: 0;                    transform: scale(0.5);                }                100% {                    opacity: 1;                    transform: scale(1);                }            }                    @keyframes slideDown {                0% {                    opacity: 0;                    transform: translateY(-30px);                }                100% {                    opacity: 1;                    transform: translateY(0);                }            }</style>
<g class="animable" style="transform-origin:250px 228.23px">
<rect class="animable" y="382.4" width="500" height=".25" fill="#ebebeb" style="transform-origin:250px 382.525px"/>
<rect class="animable" x="416.78" y="398.49" width="33.12" height=".25" fill="#ebebeb" style="transform-origin:433.34px 398.615px"/>
<rect class="animable" x="322.53" y="401.21" width="8.69" height=".25" fill="#ebebeb" style="transform-origin:326.875px 401.335px"/>
<rect class="animable" x="396.59" y="389.21" width="19.19" height=".25" fill="#ebebeb" style="transform-origin:406.185px 389.335px"/>
<rect class="animable" x="52.46" y="390.89" width="43.19" height=".25" fill="#ebebeb" style="transform-origin:74.055px 391.015px"/>
<rect class="animable" x="104.56" y="390.89" width="6.33" height=".25" fill="#ebebeb" style="transform-origin:107.725px 391.015px"/>
<rect class="animable" x="131.47" y="395.11" width="93.68" height=".25" fill="#ebebeb" style="transform-origin:178.31px 395.235px"/>
<path class="animable" d="M237,337.8H43.91a5.71,5.71,0,0,1-5.7-5.71V60.66A5.71,5.71,0,0,1,43.91,55H237a5.71,5.71,0,0,1,5.71,5.71V332.09A5.71,5.71,0,0,1,237,337.8ZM43.91,55.2a5.46,5.46,0,0,0-5.45,5.46V332.09a5.46,5.46,0,0,0,5.45,5.46H237a5.47,5.47,0,0,0,5.46-5.46V60.66A5.47,5.47,0,0,0,237,55.2Z" fill="#ebebeb" style="transform-origin:140.46px 196.4px"/>
<path class="animable" d="M453.31,337.8H260.21a5.72,5.72,0,0,1-5.71-5.71V60.66A5.72,5.72,0,0,1,260.21,55h193.1A5.71,5.71,0,0,1,459,60.66V332.09A5.71,5.71,0,0,1,453.31,337.8ZM260.21,55.2a5.47,5.47,0,0,0-5.46,5.46V332.09a5.47,5.47,0,0,0,5.46,5.46h193.1a5.47,5.47,0,0,0,5.46-5.46V60.66a5.47,5.47,0,0,0-5.46-5.46Z" fill="#ebebeb" style="transform-origin:356.75px 196.4px"/>
<rect class="animable" x="267.78" y="251.67" width="35.1" height="130.73" fill="#e6e6e6" style="transform-origin:285.33px 317.035px;transform:rotate(180deg)"/>
<polygon class="animable" points="273.62 382.4 267.78 382.4 267.78 370.63 279.75 370.63" fill="#f0f0f0" style="transform-origin:273.765px 376.515px"/>
<rect class="animable" x="410.64" y="251.67" width="35.1" height="130.73" fill="#e6e6e6" style="transform-origin:428.19px 317.035px;transform:rotate(180deg)"/>
<rect class="animable" x="267.78" y="251.67" width="147.96" height="126.21" fill="#f0f0f0" style="transform-origin:341.76px 314.775px;transform:rotate(180deg)"/>
<rect class="animable" x="272.31" y="257.26" width="138.89" height="34.61" fill="#e6e6e6" style="transform-origin:341.755px 274.565px;transform:rotate(180deg)"/>
<path class="animable" d="m335.2 268h13.12c5.7 0 11.15-4.27 15.07-11.81h-43.26c3.92 7.56 9.37 11.81 15.07 11.81z" fill="#f0f0f0" style="transform-origin:341.76px 262.095px"/>
<polygon class="animable" points="409.9 382.4 415.74 382.4 415.74 370.63 403.77 370.63" fill="#f0f0f0" style="transform-origin:409.755px 376.515px"/>
<rect class="animable" x="272.31" y="297.47" width="138.89" height="34.61" fill="#e6e6e6" style="transform-origin:341.755px 314.775px;transform:rotate(180deg)"/>
<path class="animable" d="m335.2 308.22h13.12c5.7 0 11.15-4.27 15.07-11.81h-43.26c3.92 7.59 9.37 11.81 15.07 11.81z" fill="#f0f0f0" style="transform-origin:341.76px 302.315px"/>
<rect class="animable" x="272.31" y="337.67" width="138.89" height="34.61" fill="#e6e6e6" style="transform-origin:341.755px 354.975px;transform:rotate(180deg)"/>
<path class="animable" d="m335.2 348.43h13.12c5.7 0 11.15-4.27 15.07-11.81h-43.26c3.92 7.54 9.37 11.81 15.07 11.81z" fill="#f0f0f0" style="transform-origin:341.76px 342.525px"/>
<rect class="animable" x="78" y="86.38" width="134.04" height="135.63" fill="#e6e6e6" style="transform-origin:145.02px 154.195px;transform:rotate(180deg)"/>
<rect class="animable" x="68.69" y="86.38" width="140.88" height="135.63" fill="#f0f0f0" style="transform-origin:139.13px 154.195px;transform:rotate(180deg)"/>
<rect class="animable" x="83.11" y="95.56" width="112.03" height="117.27" fill="#fff" style="transform-origin:139.125px 154.195px;transform:rotate(90deg)"/>
<path class="animable" d="m138.32 113-21.52 21.56a27.81 27.81 0 0 0 0 39.28l21.52 21.53a1.13 1.13 0 0 0 1.6 0l21.53-21.53a27.81 27.81 0 0 0 0-39.28l-21.52-21.56a1.15 1.15 0 0 0-1.61 0zm-19.92 59.2a25.54 25.54 0 0 1 0-36.07zm41.45 0v-36.03a25.54 25.54 0 0 1 0 36.07z" fill="#f0f0f0" style="transform-origin:139.125px 154.187px"/>
<polygon class="animable" points="406.85 205 331.96 205 327.69 249.22 402.58 249.22" fill="#e6e6e6" style="transform-origin:367.27px 227.11px"/>
<polygon class="animable" points="402.58 249.22 402.28 251.67 327.38 251.67 327.69 249.22" fill="#e6e6e6" style="transform-origin:364.98px 250.445px"/>
<polygon class="animable" points="404.55 205 329.66 205 325.38 249.22 400.27 249.22" fill="#f0f0f0" style="transform-origin:364.965px 227.11px"/>
<path class="animable" d="M398.76,246.34,401.89,208a.94.94,0,0,0-.93-1H332.11a.94.94,0,0,0-.94.86L328,246.19a.94.94,0,0,0,.94,1h68.85A.93.93,0,0,0,398.76,246.34Z" fill="#fff" style="transform-origin:364.945px 227.095px"/>
<polygon class="animable" points="380.76 249.22 380.46 251.67 297.99 251.67 298.29 249.22" fill="#f0f0f0" style="transform-origin:339.375px 250.445px"/>
<rect class="animable" x="280.09" y="87.88" width="140.63" height="93.49" fill="#e6e6e6" style="transform-origin:350.405px 134.625px;transform:rotate(180deg)"/>
<rect class="animable" x="276.96" y="87.88" width="140.63" height="93.49" fill="#f5f5f5" style="transform-origin:347.275px 134.625px;transform:rotate(180deg)"/>
<rect class="animable" x="306.84" y="69.91" width="80.88" height="129.41" fill="#fff" style="transform-origin:347.28px 134.615px;transform:rotate(90deg)"/>
<rect class="animable" x="243.31" y="133.44" width="80.88" height="2.36" fill="#e6e6e6" style="transform-origin:283.75px 134.62px;transform:rotate(90deg)"/>
<rect class="animable" x="279.28" y="155.87" width="135.99" height="8.46" fill="#f5f5f5" style="transform-origin:347.275px 160.1px;transform:rotate(180deg)"/>
<path class="animable" d="M270.85,77.45h156a.87.87,0,0,1,.86.86h0a.86.86,0,0,1-.86.86h-156a.86.86,0,0,1-.87-.86h0A.87.87,0,0,1,270.85,77.45Z" fill="#e6e6e6" style="transform-origin:348.845px 78.31px"/>
<path class="animable" d="m267.83 78.31a2.16 2.16 0 1 0 2.17-2.16 2.16 2.16 0 0 0-2.17 2.16z" fill="#e6e6e6" style="transform-origin:269.99px 78.31px"/>
<path class="animable" d="m419.55 83.15a1.17 1.17 0 0 0 1.17-1.15v-2.5a1.17 1.17 0 0 0-1.17-1.17 1.16 1.16 0 0 0-1.16 1.17v2.5a1.17 1.17 0 0 0 1.16 1.15z" fill="#e6e6e6" style="transform-origin:419.555px 80.74px"/>
<path class="animable" d="m283.87 83.15a1.18 1.18 0 0 0 1.13-1.15v-2.5a1.17 1.17 0 0 0-1.17-1.17 1.16 1.16 0 0 0-1.16 1.17v2.5a1.17 1.17 0 0 0 1.2 1.15z" fill="#e6e6e6" style="transform-origin:283.835px 80.7402px"/>
<rect class="animable" x="271.12" y="78.31" width="144.15" height="90.83" fill="#e0e0e0" opacity=".4" style="transform-origin:343.195px 123.725px;transform:rotate(180deg)"/>
<path class="animable" d="m403.51 78.31a2.16 2.16 0 1 0 2.16-2.16 2.16 2.16 0 0 0-2.16 2.16z" fill="#e6e6e6" style="transform-origin:405.67px 78.31px"/>
<rect class="animable" x="199.5" y="275.65" width="11.56" height="100.27" fill="#f0f0f0" style="transform-origin:205.28px 325.785px;transform:rotate(180deg)"/>
<rect class="animable" x="74.1" y="375.92" width="132.52" height="6.35" fill="#f0f0f0" style="transform-origin:140.36px 379.095px;transform:rotate(180deg)"/>
<rect class="animable" x="69.66" y="275.65" width="129.84" height="100.27" fill="#f5f5f5" style="transform-origin:134.58px 325.785px"/>
<rect class="animable" x="78.75" y="287.99" width="111.66" height="32.88" rx="7.12" fill="#f0f0f0" style="transform-origin:134.58px 304.43px"/>
<rect class="animable" x="78.75" y="330.69" width="111.66" height="32.88" rx="7.12" fill="#f0f0f0" style="transform-origin:134.58px 347.13px"/>
<path class="animable" d="m110.39 306.69h48.38a2.26 2.26 0 0 0 2.26-2.25 2.27 2.27 0 0 0-2.26-2.26h-48.38a2.27 2.27 0 0 0-2.26 2.26 2.26 2.26 0 0 0 2.26 2.25z" fill="#f5f5f5" style="transform-origin:134.58px 304.435px"/>
<path class="animable" d="m110.39 349.39h48.38a2.26 2.26 0 0 0 2.26-2.25 2.27 2.27 0 0 0-2.26-2.26h-48.38a2.27 2.27 0 0 0-2.26 2.26 2.26 2.26 0 0 0 2.26 2.25z" fill="#f5f5f5" style="transform-origin:134.58px 347.135px"/>
</g>
<g class="animable" style="transform-origin:250px 416.24px">
<ellipse class="animable" cx="250" cy="416.24" rx="193.89" ry="11.32" fill="#f5f5f5" style="transform-origin:250px 416.24px"/>
</g>
<g class="animable" style="transform-origin:209.425px 221.35px">
<polygon class="animable" points="292.85 101.45 108.05 101.45 122.41 353.12 307.2 353.12" fill="#263238" style="transform-origin:207.625px 227.285px"/>
<polygon class="animable" points="296.44 101.45 111.64 101.45 126 353.12 310.8 353.12" fill="#de4e48" style="transform-origin:211.22px 227.285px"/>
<path class="animable" d="M283.71,109.91H120.09l11.73,227.81H299.69Z" opacity=".5" style="transform-origin:209.89px 223.815px"/>
<path class="animable" d="m120.09 109.91c12.16 75.94 3.82 151.88 16 227.81h167.85c-12.16-75.93-3.82-151.87-16-227.81z" fill="#fff" style="transform-origin:212.015px 223.815px"/>
<g class="animable" opacity=".3" style="transform-origin:155.012px 191.97px">
<path class="animable" d="M154.41,178.17A14.47,14.47,0,0,1,168.75,192a13.14,13.14,0,0,1-13.26,13.69,14.34,14.34,0,0,1-14.21-13.77,13.23,13.23,0,0,1,3.63-9.69,13.05,13.05,0,0,1,9.5-4m-.1-2.89a15.85,15.85,0,0,0-15.93,16.63,17.31,17.31,0,0,0,17.15,16.63,16,16,0,0,0,16.12-16.63,17.47,17.47,0,0,0-17.34-16.63Z" fill="#de4e48" style="transform-origin:155.012px 191.97px"/>
</g>
<path class="animable" d="m247.22 302.92h-53a2.79 2.79 0 0 0-2.82 3.1 3.51 3.51 0 0 0 3.41 3.11h53a2.77 2.77 0 0 0 2.8-3.11 3.49 3.49 0 0 0-3.39-3.1z" fill="#e0e0e0" style="transform-origin:221.007px 306.025px"/>
<path class="animable" d="m275.57 289.87h-82.42a2.83 2.83 0 0 0-2.87 3.1 3.4 3.4 0 0 0 3.34 3.11h82.38a2.83 2.83 0 0 0 2.9-3.08 3.39 3.39 0 0 0-3.33-3.13z" fill="#e0e0e0" style="transform-origin:234.589px 292.975px"/>
<g class="animable" opacity=".3" style="transform-origin:156.557px 245.735px">
<path class="animable" d="m156.1 232a14.26 14.26 0 0 1 14.15 13.77 13.26 13.26 0 0 1-3.69 9.69 13.1 13.1 0 0 1-9.54 4 14.35 14.35 0 0 1-14.24-13.77 13.24 13.24 0 0 1 13.32-13.69m0-2.9a16.09 16.09 0 0 0-16.18 16.63 17.33 17.33 0 0 0 17.22 16.64 16 16 0 0 0 16.05-16.64 17.21 17.21 0 0 0-17.09-16.63z" fill="#de4e48" style="transform-origin:156.557px 245.735px"/>
</g>
<path class="animable" d="m217.8 188.49h-28.35a3.25 3.25 0 0 1-3.22-3.11 3 3 0 0 1 3-3.1h28.34a3.27 3.27 0 0 1 3.24 3.1 3 3 0 0 1-3.01 3.11z" fill="#e0e0e0" style="transform-origin:203.52px 185.385px"/>
<path class="animable" d="m250.52 188.49h-19.2a3.26 3.26 0 0 1-3.23-3.11 3 3 0 0 1 3-3.1h19.21a3.26 3.26 0 0 1 3.23 3.1 3 3 0 0 1-3.01 3.11z" fill="#e0e0e0" style="transform-origin:240.81px 185.385px"/>
<path class="animable" d="m266 201.54h-76.1a3.23 3.23 0 0 1-3.21-3.11 3 3 0 0 1 3-3.1h76.09a3.22 3.22 0 0 1 3.2 3.1 3 3 0 0 1-2.98 3.11z" fill="#e0e0e0" style="transform-origin:227.835px 198.435px"/>
<g class="animable" opacity=".3" style="transform-origin:159.336px 299.499px">
<path class="animable" d="M158.27,285.76a15.16,15.16,0,0,1,14.8,13.78,12.65,12.65,0,0,1-3.11,9.68,12.21,12.21,0,0,1-9.26,4,15.44,15.44,0,0,1-15.1-13.77,12.48,12.48,0,0,1,3.26-9.69,12.66,12.66,0,0,1,9.41-4m-.14-2.89A15.2,15.2,0,0,0,142.7,299.5c.77,9.18,9.1,16.63,18.28,16.63s15.76-7.45,15-16.63a18.24,18.24,0,0,0-17.84-16.63Z" fill="#de4e48" style="transform-origin:159.336px 299.499px"/>
</g>
<path class="animable" d="m279 249.13h-87.81a3 3 0 0 0-3 3.1 3.24 3.24 0 0 0 3.21 3.1h87.85a3 3 0 0 0 3-3.1 3.22 3.22 0 0 0-3.25-3.1z" fill="#e0e0e0" style="transform-origin:235.22px 252.23px"/>
<path class="animable" d="m258.19 236.07h-67.38a3 3 0 0 0-3 3.11 3.21 3.21 0 0 0 3.19 3.1h67.39a3 3 0 0 0 3-3.1 3.2 3.2 0 0 0-3.2-3.11z" fill="#e0e0e0" style="transform-origin:224.6px 239.175px"/>
<path class="animable" d="m155.93 201.72-1.18-1.94c-2.59-4.23-8-8-9.86-9.11l1.4-2.48a38.24 38.24 0 0 1 9.68 8.36c4.25-5.71 10.46-11.58 18.87-17.92l1.81 2.34c-9 6.77-15.38 13-19.47 18.93-0.41 0.61-0.83 1.22-1.25 1.82z" fill="#de4e48" style="transform-origin:160.77px 190.175px"/>
<path class="animable" d="M157.43,255.52c-.39-.65-.79-1.3-1.19-1.94-2.6-4.23-8-8-9.84-9.12l1.42-2.48a38.34,38.34,0,0,1,9.63,8.36c4.26-5.7,10.52-11.58,19.06-17.92l1.77,2.34c-9.12,6.77-15.54,13-19.61,18.93Z" fill="#de4e48" style="transform-origin:162.34px 243.97px"/>
<path class="animable" d="m160.86 309.44-1.32-1.94c-2.88-4.23-8.46-8-10.38-9.11l1.3-2.48a42.05 42.05 0 0 1 10.09 8.35c3.92-5.7 9.88-11.58 18.16-17.91l1.87 2.34c-8.84 6.77-14.91 13-18.6 18.93z" fill="#de4e48" style="transform-origin:164.87px 297.895px"/>
<path class="animable" d="M224.1,129q-2.64,5.76-5.41,11.51a24.75,24.75,0,0,1,13.64,20.08h13.29C244.74,147,236,135.17,224.1,129Z" fill="#de4e48" style="transform-origin:232.155px 144.795px"/>
<path class="animable" d="m173.47 160.61h13.29a21.17 21.17 0 0 1 9.24-19.37q-3.88-5.76-7.88-11.52c-9.7 6.28-15.5 17.79-14.65 30.89z" fill="#263238" style="transform-origin:184.694px 145.165px"/>
<path class="animable" d="m206.12 124.54a32.74 32.74 0 0 0-18 5.18q4 5.76 7.88 11.52a21 21 0 0 1 11.66-3.42 24.25 24.25 0 0 1 11 2.71q2.76-5.76 5.41-11.51a39.2 39.2 0 0 0-17.95-4.48z" fill="#de4e48" style="transform-origin:206.095px 132.889px"/>
<path class="animable" d="m206.12 124.54a32.74 32.74 0 0 0-18 5.18q4 5.76 7.88 11.52a21 21 0 0 1 11.66-3.42 24.25 24.25 0 0 1 11 2.71q2.76-5.76 5.41-11.51a39.2 39.2 0 0 0-17.95-4.48z" fill="#263238" opacity=".5" style="transform-origin:206.095px 132.889px"/>
<path class="animable" d="m222.36 151.51s-13.42 5.49-14.84 6.49a3.19 3.19 0 0 0-0.57 4.53 3.35 3.35 0 0 0 4.58 0.87c1.47-1.06 10.85-11.89 10.83-11.89zm-14.1 10a1.57 1.57 0 0 1 0.28-2.23 1.67 1.67 0 0 1 2.26 0.43 1.57 1.57 0 0 1-0.28 2.23 1.67 1.67 0 0 1-2.26-0.39z" fill="#263238" style="transform-origin:214.308px 157.731px"/>
<path class="animable" d="m238.27 145.16a4.26 4.26 0 0 1-4.32 4.72 5.25 5.25 0 0 1-5.12-4.72 4.23 4.23 0 0 1 4.28-4.71 5.28 5.28 0 0 1 5.16 4.71z" fill="#fff" style="transform-origin:233.549px 145.165px"/>
<path class="animable" d="M232.42,144.08a.68.68,0,0,1-.68.75.83.83,0,0,1-.82-.75.67.67,0,0,1,.68-.75A.83.83,0,0,1,232.42,144.08Z" fill="#263238" style="transform-origin:231.669px 144.08px"/>
<path class="animable" d="M236,144.08a.68.68,0,0,1-.69.75.85.85,0,0,1-.82-.75.67.67,0,0,1,.69-.75A.83.83,0,0,1,236,144.08Z" fill="#263238" style="transform-origin:235.244px 144.08px"/>
<path class="animable" d="M233.77,148h0a4,4,0,0,1-2.67-1.05.37.37,0,0,1,0-.52.36.36,0,0,1,.52,0,3.25,3.25,0,0,0,2.17.86h0a2.66,2.66,0,0,0,2-.84.37.37,0,1,1,.54.51A3.38,3.38,0,0,1,233.77,148Z" fill="#263238" style="transform-origin:233.712px 147.161px"/>
<path class="animable" d="m211.62 131.1a4.15 4.15 0 0 1-4.2 4.72 5.41 5.41 0 0 1-5.24-4.72 4.1 4.1 0 0 1 4.16-4.71 5.46 5.46 0 0 1 5.28 4.71z" fill="#fff" style="transform-origin:206.897px 131.105px"/>
<path class="animable" d="M205.74,130a.66.66,0,0,1-.66.75.87.87,0,0,1-.84-.75.65.65,0,0,1,.66-.75A.86.86,0,0,1,205.74,130Z" fill="#263238" style="transform-origin:204.989px 130px"/>
<path class="animable" d="M209.31,130a.66.66,0,0,1-.67.75.88.88,0,0,1-.84-.75.66.66,0,0,1,.67-.75A.87.87,0,0,1,209.31,130Z" fill="#263238" style="transform-origin:208.555px 130px"/>
<path class="animable" d="M209.41,133h-4.68a.38.38,0,0,1,0-.75h4.68a.38.38,0,0,1,0,.75Z" fill="#263238" style="transform-origin:207.07px 132.625px"/>
<path class="animable" d="m187.87 145.16a4.26 4.26 0 0 1-4.32 4.72 5.25 5.25 0 0 1-5.12-4.72 4.23 4.23 0 0 1 4.28-4.71 5.29 5.29 0 0 1 5.16 4.71z" fill="#fff" style="transform-origin:183.149px 145.165px"/>
<path class="animable" d="M182,144.08a.68.68,0,0,1-.68.75.83.83,0,0,1-.82-.75.67.67,0,0,1,.68-.75A.83.83,0,0,1,182,144.08Z" fill="#263238" style="transform-origin:181.249px 144.08px"/>
<path class="animable" d="M185.58,144.08a.67.67,0,0,1-.68.75.85.85,0,0,1-.82-.75.67.67,0,0,1,.68-.75A.82.82,0,0,1,185.58,144.08Z" fill="#263238" style="transform-origin:184.83px 144.08px"/>
<path class="animable" d="M181,148a.35.35,0,0,1-.25-.1.37.37,0,0,1,0-.52,3.43,3.43,0,0,1,2.53-1.08,4,4,0,0,1,2.67,1.06.36.36,0,0,1,0,.52.39.39,0,0,1-.53,0,3.2,3.2,0,0,0-2.18-.86,2.68,2.68,0,0,0-2,.83A.39.39,0,0,1,181,148Z" fill="#263238" style="transform-origin:183.352px 147.15px"/>
<path class="animable" d="m256.74 110.56c-3.12-6.57-10.4-10.92-18.25-10.92h-16a6.24 6.24 0 0 1-5.55-2.9c-2.23-4.18-7.55-7.16-13.59-7.16s-11 3-12.76 7.16c-0.73 1.76-2.82 2.9-5.22 2.9h-16c-7.85 0-14.64 4.35-17 10.92a1.62 1.62 0 0 0-0.1 0.72 2 2 0 0 0 2 1.9h100.88a1.79 1.79 0 0 0 1.59-2.62zm-52.74-9.11a4.78 4.78 0 0 1-4.67-4.45 4.16 4.16 0 0 1 4.2-4.45 4.77 4.77 0 0 1 4.71 4.45 4.16 4.16 0 0 1-4.24 4.45z" fill="#263238" style="transform-origin:204.604px 101.38px"/>
</g>
<g class="animable" style="transform-origin:329.97px 264.56px">
<path class="animable" d="M360.42,409.11a3.2,3.2,0,0,1-2.22-.55.69.69,0,0,1-.07-.76.74.74,0,0,1,.51-.41c1.18-.33,3.91,1.13,4,1.2a.17.17,0,0,1,.1.18.15.15,0,0,1-.12.14A12.92,12.92,0,0,1,360.42,409.11Zm-1.32-1.42a1.11,1.11,0,0,0-.33,0,.45.45,0,0,0-.32.24c-.1.22,0,.33,0,.39.4.47,2.26.48,3.6.29A8.65,8.65,0,0,0,359.1,407.69Z" fill="#de4e48" style="transform-origin:360.395px 408.238px"/>
<path class="animable" d="M362.62,408.91h-.07c-.93-.4-2.87-2-2.83-2.82,0-.2.12-.44.6-.49a1.42,1.42,0,0,1,1,.3,5.65,5.65,0,0,1,1.46,2.83.18.18,0,0,1,0,.16A.17.17,0,0,1,362.62,408.91Zm-2.13-3h-.1c-.31,0-.32.15-.32.19,0,.5,1.31,1.75,2.28,2.29a4.66,4.66,0,0,0-1.23-2.26A1,1,0,0,0,360.49,405.93Z" fill="#de4e48" style="transform-origin:361.259px 407.258px"/>
<polygon class="animable" points="370.68 408.74 363.33 408.74 360.7 391.72 368.05 391.72" fill="#ffc3bd" style="transform-origin:365.69px 400.23px"/>
<path class="animable" d="M363.28,407.89h8a.74.74,0,0,1,.68.5l2.18,6.53a1,1,0,0,1-.91,1.3c-2.9,0-7.1-.21-10.74-.21-4.25,0-3.87.23-8.86.23-3,0-4.19-3.05-3-3.33,5.61-1.25,6.26-1.39,10.88-4.45A3.09,3.09,0,0,1,363.28,407.89Z" fill="#263238" style="transform-origin:362.18px 412.065px"/>
<polygon class="animable" points="360.7 391.73 362.06 400.5 369.41 400.5 368.05 391.73" opacity=".2" style="transform-origin:365.055px 396.115px"/>
<path class="animable" d="M369.84,225.45l-5,5.05,7.66,2.71s3-4.12.89-6.94Z" fill="#ffc3bd" style="transform-origin:369.491px 229.33px"/>
<polygon class="animable" points="363.16 237.56 370.81 238.68 372.52 233.21 364.86 230.5" fill="#ffc3bd" style="transform-origin:367.84px 234.59px"/>
<path class="animable" d="M373.18,163.27c.65,1.4,1.17,2.59,1.69,3.89s1,2.55,1.5,3.83c.95,2.57,1.8,5.19,2.59,7.84a82.8,82.8,0,0,1,2,8.15l.38,2.1.31,2.14c.11.71.18,1.45.24,2.18s.16,1.39.16,2.31l0,1.3,0,1.15-.06,1.13-.11,1.07c-.13,1.44-.32,2.79-.5,4.16-.4,2.7-.86,5.34-1.37,8-1.06,5.23-2.22,10.34-3.62,15.49l-9.11-1.8c.58-5.08,1.18-10.24,1.66-15.32.23-2.54.48-5.07.62-7.55.06-1.22.13-2.46.13-3.63v-.88l0-.81,0-.81-.07-.66a15,15,0,0,0-.22-1.57c-.09-.56-.17-1.12-.3-1.69l-.37-1.71-.43-1.72c-.62-2.3-1.32-4.61-2.12-6.92s-1.69-4.61-2.63-6.89c-.46-1.15-.94-2.29-1.44-3.41s-1-2.29-1.49-3.26Z" fill="#263238" style="transform-origin:371.335px 195.64px"/>
<path class="animable" d="m338.65 221.87s1.22 56.24 4.52 78.64c3.44 23.3 16 98.29 16 98.29h12.44s-4.46-71.37-5.88-94.3c-1.55-25-1.21-82.63-1.21-82.63z" fill="#de4e48" style="transform-origin:355.13px 310.335px"/>
<path class="animable" d="M356.18,393.84c-.06,0,1.28,5.17,1.28,5.17H372.6l-.11-4.61Z" fill="#263238" style="transform-origin:364.389px 396.425px"/>
<ellipse class="animable" cx="335.11" cy="130.65" rx="1.13" ry=".74" fill="#263238" style="transform-origin:335.11px 130.65px;transform:rotate(-86.48deg)"/>
<path class="animable" d="M335.54,131.78a23.2,23.2,0,0,1-3.16,5.32,3.52,3.52,0,0,0,2.95.56Z" fill="#ed847e" style="transform-origin:333.96px 134.776px"/>
<path class="animable" d="M338.18,127.2a.43.43,0,0,1-.22-.06,2.82,2.82,0,0,0-2.57-.48.36.36,0,0,1-.47-.21.37.37,0,0,1,.23-.47,3.55,3.55,0,0,1,3.26.56.37.37,0,0,1,.07.51A.38.38,0,0,1,338.18,127.2Z" fill="#263238" style="transform-origin:336.726px 126.503px"/>
<path class="animable" d="m355.3 137.52c-1.24 5.38-2.64 15.23 1 18.81 0 0-1.66 5.45-11.65 5.45-11 0-5.05-5.45-5.05-5.45 6-1.43 6.05-5.87 5.15-10.05z" fill="#ffc3bd" style="transform-origin:347.147px 149.65px"/>
<path class="animable" d="M360.17,158.85c1.08-2.19,2.27-4.71,0-5.49-2.48-.87-16.19-1.75-21-.13a5,5,0,0,0-3.61,6.08Z" fill="#de4e48" style="transform-origin:348.434px 155.818px"/>
<path class="animable" d="m370.69 158.44c6.33 2.92 9.55 25.06 9.55 25.06l-12.75 4a129.49 129.49 0 0 1-5.53-18c-1.96-9.24 2.25-14.04 8.73-11.06z" fill="#263238" style="transform-origin:370.858px 172.529px"/>
<path class="animable" d="m292.33 192.89-5.88-5.06-5.29 7.7s4.75 3.81 10 2.25z" fill="#ffc3bd" style="transform-origin:286.745px 192.993px"/>
<polygon class="animable" points="278.7 185.38 277.89 192.99 281.16 195.53 286.45 187.83" fill="#ffc3bd" style="transform-origin:282.17px 190.455px"/>
<path class="animable" d="m356.65 129.33c-0.74 7.64-0.79 12.14-4.79 16.06a10 10 0 0 1-16.86-5.23c-1.4-6.86 0-18.2 7.63-21.24a10.09 10.09 0 0 1 14.02 10.41z" fill="#ffc3bd" style="transform-origin:345.617px 133.19px"/>
<path class="animable" d="M341,131.78c-.67-5.28-.56-7.28,2.26-8.45-2.93-.58-5.47-.66-6.68-2.37s-1.5-6.08,4.38-8.08c-.54,1,1.17,3.08,6.58,1.2s13.29-2.08,14,3.42c2.86-1,7.65,7.83,2,14.28-4.71,5.4-7.85,9.13-8.78,12a1,1,0,0,1-1.37.6c-1.95-.91-5.44-.13-7,.29a1,1,0,0,1-1.14-.51C344.24,142.08,341.51,136.14,341,131.78Z" fill="#263238" style="transform-origin:351.02px 128.791px"/>
<path class="animable" d="m360.48 118.17s2.32-3.27 6.77-0.84a20.16 20.16 0 0 0-6.77 0.84z" fill="#263238" style="transform-origin:363.865px 117.301px"/>
<path class="animable" d="m360.86 118.87s3.23-2 0.71-5.77a14.53 14.53 0 0 1-0.71 5.77z" fill="#263238" style="transform-origin:361.696px 115.985px"/>
<path class="animable" d="m344.74 132a9.15 9.15 0 0 1-2.68 4.95c-1.85 1.75-3.45 0.51-3.5-1.74-0.05-2 0.85-5.38 3-6.28s3.56 0.81 3.18 3.07z" fill="#ffc3bd" style="transform-origin:341.68px 133.231px"/>
<path class="animable" d="m339.68 253.12c0.72 16.78 1.85 36.26 3.49 47.39 0.63 4.24 1.55 10.18 2.65 17.07 4.42-24.12 7.06-55.2-6.14-64.46z" opacity=".3" style="transform-origin:344.552px 285.35px"/>
<path class="animable" d="M334.17,409.11c-.94,0-1.85-.13-2.14-.55a.68.68,0,0,1,0-.76,1,1,0,0,1,.57-.41c1.23-.33,3.75,1.13,3.86,1.2a.15.15,0,0,1,.07.18.18.18,0,0,1-.14.14A13.43,13.43,0,0,1,334.17,409.11Zm-1.11-1.42a1.18,1.18,0,0,0-.34,0,.53.53,0,0,0-.35.24c-.13.22-.09.33-.05.39.33.47,2.18.48,3.56.29A7.61,7.61,0,0,0,333.06,407.69Z" fill="#de4e48" style="transform-origin:334.226px 408.226px"/>
<path class="animable" d="M336.4,408.91h-.07c-.87-.4-2.58-2-2.41-2.82,0-.2.18-.44.66-.49a1.29,1.29,0,0,1,1,.3c.91.77,1,2.75,1,2.83a.21.21,0,0,1-.08.16A.19.19,0,0,1,336.4,408.91Zm-1.69-3h-.1c-.32,0-.34.15-.35.19-.1.5,1.05,1.75,1.94,2.29a4,4,0,0,0-.89-2.26A.92.92,0,0,0,334.71,405.93Z" fill="#de4e48" style="transform-origin:335.244px 407.25px"/>
<polygon class="animable" points="344.48 408.74 337.14 408.74 337 391.72 344.35 391.72" fill="#ffc3bd" style="transform-origin:340.74px 400.23px"/>
<path class="animable" d="M337.21,407.89h8a.6.6,0,0,1,.6.5l1.23,6.53a1.11,1.11,0,0,1-1.11,1.3c-2.89,0-7.07-.21-10.7-.21-4.26,0-7.94.23-12.93.23-3,0-3.74-3.05-2.47-3.33,5.79-1.25,10.49-1.39,15.56-4.45A3.57,3.57,0,0,1,337.21,407.89Z" fill="#263238" style="transform-origin:333.146px 412.065px"/>
<polygon class="animable" points="337.01 391.73 337.07 400.5 344.42 400.5 344.36 391.73" opacity=".2" style="transform-origin:340.715px 396.115px"/>
<path class="animable" d="M325.54,221.87s-3,54.93-2.94,77.33c0,23.3,11.8,99.6,11.8,99.6h12.44S343.6,323.86,345,301c1.49-25,8.71-79.11,8.71-79.11Z" fill="#de4e48" style="transform-origin:338.155px 310.335px"/>
<path class="animable" d="M332.18,393.84c-.06,0,.51,5.17.51,5.17h15.14l.58-4.61Z" fill="#263238" style="transform-origin:340.293px 396.425px"/>
<path class="animable" d="m328.22 158.37s-12.52 31.63-7.07 86.3h45.72c0.48-6-4.3-58.26 2.52-86.68a101.36 101.36 0 0 0-13.1-1.66 145.28 145.28 0 0 0-16.7 0 74.84 74.84 0 0 0-11.37 2.04z" fill="#263238" style="transform-origin:344.583px 200.38px"/>
<path class="animable" d="M321.75,187c-.68,5-1.24,10.71-1.6,17,8.88-8.16,11.92-28.49,11.92-28.49Z" opacity=".2" style="transform-origin:326.11px 189.755px"/>
<path class="animable" d="M332.93,173.43c-1.8,4.68-3.62,9.19-5.62,13.72s-4.07,9-6.4,13.48L320,202.3l-.46.84c-.19.34-.17.36-.69,1.23a9.78,9.78,0,0,1-3.61,3.36,10.76,10.76,0,0,1-3.91,1.18,16.46,16.46,0,0,1-5.6-.45,31,31,0,0,1-4.24-1.38,55.15,55.15,0,0,1-7.17-3.6c-1.13-.65-2.21-1.35-3.28-2S289,200,287.85,199.2l5.4-8.28a70.26,70.26,0,0,0,12.15,5.27,18.34,18.34,0,0,0,2.73.62,3.84,3.84,0,0,0,1.6,0c.06,0-.13-.06-.46.11a2.69,2.69,0,0,0-1,.88c-.21.35.06-.17.15-.37l.36-.79.72-1.57c1.9-4.24,3.66-8.63,5.37-13s3.37-8.93,4.9-13.34Z" fill="#263238" style="transform-origin:310.39px 188.854px"/>
<path class="animable" d="m337.9 161.69c2.34 6.54-14.22 32.87-14.22 32.87l-9.82-9.73s2.51-8.27 5.82-18.23c3.26-9.79 15.99-11.16 18.22-4.91z" fill="#263238" style="transform-origin:325.993px 176.229px"/>
</g>
</svg>
